<mxfile host="Electron" modified="2023-08-14T23:23:52.222Z" agent="Mozilla/5.0 (Windows NT 10.0; Win64; x64) AppleWebKit/537.36 (KHTML, like Gecko) draw.io/21.6.8 Chrome/114.0.5735.289 Electron/25.5.0 Safari/537.36" etag="8GW2Q6Ukq80CDE7JhR8p" version="21.6.8" type="device">
  <diagram id="C5RBs43oDa-KdzZeNtuy" name="Page-1">
    <mxGraphModel dx="864" dy="516" grid="1" gridSize="10" guides="1" tooltips="1" connect="1" arrows="1" fold="1" page="1" pageScale="1" pageWidth="827" pageHeight="1169" math="0" shadow="0">
      <root>
        <mxCell id="WIyWlLk6GJQsqaUBKTNV-0" />
        <mxCell id="WIyWlLk6GJQsqaUBKTNV-1" parent="WIyWlLk6GJQsqaUBKTNV-0" />
        <mxCell id="xDPC-aREAgZLQWYNRVdZ-0" value="" style="shape=internalStorage;whiteSpace=wrap;html=1;backgroundOutline=1;dashed=1;dashPattern=1 4;dx=40;dy=20;" vertex="1" parent="WIyWlLk6GJQsqaUBKTNV-1">
          <mxGeometry x="40" y="30" width="200" height="380" as="geometry" />
        </mxCell>
        <mxCell id="xDPC-aREAgZLQWYNRVdZ-1" value="" style="shape=internalStorage;whiteSpace=wrap;html=1;backgroundOutline=1;dashed=1;dashPattern=1 4;dx=35;dy=20;" vertex="1" parent="WIyWlLk6GJQsqaUBKTNV-1">
          <mxGeometry x="315" y="30" width="205" height="230" as="geometry" />
        </mxCell>
        <mxCell id="xDPC-aREAgZLQWYNRVdZ-2" value="log_ticket" style="text;html=1;strokeColor=none;fillColor=none;align=center;verticalAlign=middle;whiteSpace=wrap;rounded=0;" vertex="1" parent="WIyWlLk6GJQsqaUBKTNV-1">
          <mxGeometry x="120" y="30" width="60" height="20" as="geometry" />
        </mxCell>
        <mxCell id="xDPC-aREAgZLQWYNRVdZ-3" value="log_empresa" style="text;html=1;strokeColor=none;fillColor=none;align=center;verticalAlign=middle;whiteSpace=wrap;rounded=0;" vertex="1" parent="WIyWlLk6GJQsqaUBKTNV-1">
          <mxGeometry x="400" y="30" width="60" height="20" as="geometry" />
        </mxCell>
        <mxCell id="xDPC-aREAgZLQWYNRVdZ-4" value="log_id" style="text;html=1;strokeColor=default;fillColor=none;align=center;verticalAlign=middle;whiteSpace=wrap;rounded=0;dashed=1;dashPattern=1 4;" vertex="1" parent="WIyWlLk6GJQsqaUBKTNV-1">
          <mxGeometry x="80" y="50" width="160" height="30" as="geometry" />
        </mxCell>
        <mxCell id="xDPC-aREAgZLQWYNRVdZ-5" value="event_name(varchar 40)" style="text;html=1;strokeColor=default;fillColor=none;align=center;verticalAlign=middle;whiteSpace=wrap;rounded=0;dashed=1;dashPattern=1 4;" vertex="1" parent="WIyWlLk6GJQsqaUBKTNV-1">
          <mxGeometry x="80" y="80" width="160" height="30" as="geometry" />
        </mxCell>
        <mxCell id="xDPC-aREAgZLQWYNRVdZ-6" value="operador_viejo" style="text;html=1;strokeColor=default;fillColor=none;align=center;verticalAlign=middle;whiteSpace=wrap;rounded=0;dashed=1;dashPattern=1 4;" vertex="1" parent="WIyWlLk6GJQsqaUBKTNV-1">
          <mxGeometry x="80" y="110" width="160" height="30" as="geometry" />
        </mxCell>
        <mxCell id="xDPC-aREAgZLQWYNRVdZ-7" value="operador_nuevo" style="text;html=1;strokeColor=default;fillColor=none;align=center;verticalAlign=middle;whiteSpace=wrap;rounded=0;dashed=1;dashPattern=1 4;" vertex="1" parent="WIyWlLk6GJQsqaUBKTNV-1">
          <mxGeometry x="80" y="140" width="160" height="30" as="geometry" />
        </mxCell>
        <mxCell id="xDPC-aREAgZLQWYNRVdZ-8" value="severidad_viejo" style="text;html=1;strokeColor=default;fillColor=none;align=center;verticalAlign=middle;whiteSpace=wrap;rounded=0;dashed=1;dashPattern=1 4;" vertex="1" parent="WIyWlLk6GJQsqaUBKTNV-1">
          <mxGeometry x="80" y="170" width="160" height="30" as="geometry" />
        </mxCell>
        <mxCell id="xDPC-aREAgZLQWYNRVdZ-9" value="severidad_nuevo" style="text;html=1;strokeColor=default;fillColor=none;align=center;verticalAlign=middle;whiteSpace=wrap;rounded=0;dashed=1;dashPattern=1 4;" vertex="1" parent="WIyWlLk6GJQsqaUBKTNV-1">
          <mxGeometry x="80" y="200" width="160" height="30" as="geometry" />
        </mxCell>
        <mxCell id="xDPC-aREAgZLQWYNRVdZ-10" value="estado_viejo" style="text;html=1;strokeColor=default;fillColor=none;align=center;verticalAlign=middle;whiteSpace=wrap;rounded=0;dashed=1;dashPattern=1 4;" vertex="1" parent="WIyWlLk6GJQsqaUBKTNV-1">
          <mxGeometry x="80" y="230" width="160" height="30" as="geometry" />
        </mxCell>
        <mxCell id="xDPC-aREAgZLQWYNRVdZ-11" value="estado_nuevo" style="text;html=1;strokeColor=default;fillColor=none;align=center;verticalAlign=middle;whiteSpace=wrap;rounded=0;dashed=1;dashPattern=1 4;" vertex="1" parent="WIyWlLk6GJQsqaUBKTNV-1">
          <mxGeometry x="80" y="260" width="160" height="30" as="geometry" />
        </mxCell>
        <mxCell id="xDPC-aREAgZLQWYNRVdZ-12" value="grupo_de_derivacion_viejo" style="text;html=1;strokeColor=default;fillColor=none;align=center;verticalAlign=middle;whiteSpace=wrap;rounded=0;dashed=1;dashPattern=1 4;" vertex="1" parent="WIyWlLk6GJQsqaUBKTNV-1">
          <mxGeometry x="80" y="290" width="160" height="30" as="geometry" />
        </mxCell>
        <mxCell id="xDPC-aREAgZLQWYNRVdZ-13" value="log_id" style="text;html=1;strokeColor=default;fillColor=none;align=center;verticalAlign=middle;whiteSpace=wrap;rounded=0;dashed=1;dashPattern=1 4;" vertex="1" parent="WIyWlLk6GJQsqaUBKTNV-1">
          <mxGeometry x="350" y="50" width="170" height="30" as="geometry" />
        </mxCell>
        <mxCell id="xDPC-aREAgZLQWYNRVdZ-14" value="event_name(varchar 40)" style="text;html=1;strokeColor=default;fillColor=none;align=center;verticalAlign=middle;whiteSpace=wrap;rounded=0;dashed=1;dashPattern=1 4;" vertex="1" parent="WIyWlLk6GJQsqaUBKTNV-1">
          <mxGeometry x="350" y="80" width="170" height="30" as="geometry" />
        </mxCell>
        <mxCell id="xDPC-aREAgZLQWYNRVdZ-15" value="ID" style="text;html=1;strokeColor=default;fillColor=none;align=center;verticalAlign=middle;whiteSpace=wrap;rounded=0;dashed=1;dashPattern=1 4;" vertex="1" parent="WIyWlLk6GJQsqaUBKTNV-1">
          <mxGeometry x="350" y="110" width="170" height="30" as="geometry" />
        </mxCell>
        <mxCell id="xDPC-aREAgZLQWYNRVdZ-16" value="empresa(varchar 50)" style="text;html=1;strokeColor=default;fillColor=none;align=center;verticalAlign=middle;whiteSpace=wrap;rounded=0;dashed=1;dashPattern=1 4;" vertex="1" parent="WIyWlLk6GJQsqaUBKTNV-1">
          <mxGeometry x="350" y="140" width="170" height="30" as="geometry" />
        </mxCell>
        <mxCell id="xDPC-aREAgZLQWYNRVdZ-17" value="estado (bit)" style="text;html=1;strokeColor=default;fillColor=none;align=center;verticalAlign=middle;whiteSpace=wrap;rounded=0;dashed=1;dashPattern=1 4;" vertex="1" parent="WIyWlLk6GJQsqaUBKTNV-1">
          <mxGeometry x="350" y="170" width="170" height="30" as="geometry" />
        </mxCell>
        <mxCell id="xDPC-aREAgZLQWYNRVdZ-18" value="usuario(varchar 45)" style="text;html=1;strokeColor=default;fillColor=none;align=center;verticalAlign=middle;whiteSpace=wrap;rounded=0;dashed=1;dashPattern=1 4;" vertex="1" parent="WIyWlLk6GJQsqaUBKTNV-1">
          <mxGeometry x="351" y="200" width="170" height="30" as="geometry" />
        </mxCell>
        <mxCell id="xDPC-aREAgZLQWYNRVdZ-19" value="fecha(date)" style="text;html=1;strokeColor=default;fillColor=none;align=center;verticalAlign=middle;whiteSpace=wrap;rounded=0;dashed=1;dashPattern=1 4;" vertex="1" parent="WIyWlLk6GJQsqaUBKTNV-1">
          <mxGeometry x="350" y="230" width="170" height="30" as="geometry" />
        </mxCell>
        <mxCell id="xDPC-aREAgZLQWYNRVdZ-24" value="PK" style="text;html=1;strokeColor=none;fillColor=none;align=center;verticalAlign=middle;whiteSpace=wrap;rounded=0;" vertex="1" parent="WIyWlLk6GJQsqaUBKTNV-1">
          <mxGeometry x="40" y="50" width="40" height="30" as="geometry" />
        </mxCell>
        <mxCell id="xDPC-aREAgZLQWYNRVdZ-25" value="PK" style="text;html=1;strokeColor=none;fillColor=none;align=center;verticalAlign=middle;whiteSpace=wrap;rounded=0;" vertex="1" parent="WIyWlLk6GJQsqaUBKTNV-1">
          <mxGeometry x="315" y="50" width="35" height="30" as="geometry" />
        </mxCell>
        <mxCell id="xDPC-aREAgZLQWYNRVdZ-26" value="grupo_de_derivacion_nuevo" style="text;html=1;strokeColor=default;fillColor=none;align=center;verticalAlign=middle;whiteSpace=wrap;rounded=0;dashed=1;dashPattern=1 4;" vertex="1" parent="WIyWlLk6GJQsqaUBKTNV-1">
          <mxGeometry x="80" y="320" width="160" height="30" as="geometry" />
        </mxCell>
        <mxCell id="xDPC-aREAgZLQWYNRVdZ-27" value="usuario(varchar 45)" style="text;html=1;strokeColor=default;fillColor=none;align=center;verticalAlign=middle;whiteSpace=wrap;rounded=0;dashed=1;dashPattern=1 4;" vertex="1" parent="WIyWlLk6GJQsqaUBKTNV-1">
          <mxGeometry x="80" y="350" width="160" height="30" as="geometry" />
        </mxCell>
        <mxCell id="xDPC-aREAgZLQWYNRVdZ-28" value="fecha (date)" style="text;html=1;strokeColor=default;fillColor=none;align=center;verticalAlign=middle;whiteSpace=wrap;rounded=0;dashed=1;dashPattern=1 4;" vertex="1" parent="WIyWlLk6GJQsqaUBKTNV-1">
          <mxGeometry x="80" y="380" width="160" height="30" as="geometry" />
        </mxCell>
        <mxCell id="xDPC-aREAgZLQWYNRVdZ-30" value="Todos los demas INT" style="text;html=1;strokeColor=none;fillColor=none;align=center;verticalAlign=middle;whiteSpace=wrap;rounded=0;" vertex="1" parent="WIyWlLk6GJQsqaUBKTNV-1">
          <mxGeometry x="40" y="430" width="140" height="30" as="geometry" />
        </mxCell>
        <mxCell id="xDPC-aREAgZLQWYNRVdZ-31" value="Todos los demas INT" style="text;html=1;strokeColor=none;fillColor=none;align=center;verticalAlign=middle;whiteSpace=wrap;rounded=0;" vertex="1" parent="WIyWlLk6GJQsqaUBKTNV-1">
          <mxGeometry x="315" y="280" width="140" height="30" as="geometry" />
        </mxCell>
      </root>
    </mxGraphModel>
  </diagram>
</mxfile>
